/* XPM */
static char *_6317a42ea9e4a10c30ae65bd2cb567afT7shzRVQRpNJvF8[] = {
/* columns rows colors chars-per-pixel */
"100 100 2 1 ",
"  c black",
". c #ACkjd8",
/* pixels */
"                                                                                                    ",
"                                                                                                    ",
"                                                                                                    ",
"                                                                                                    ",
"                                                                                                    ",
"                                                                                                    ",
"                                                                                                    ",
"                                                                                                    ",
"                                                                                                    ",
"                                                                                                    ",
"                                                                                                    ",
"                                                                                                    ",
"                                                                                                    ",
"                                                                                                    ",
"                                                                                                    ",
"                                                                                                    ",
"                                              .                                                     ",
"                                             ...                                                    ",
"                                            ....                                                    ",
"                                            .....                                                   ",
"                                           .......                                                  ",
"                                          ........                                                  ",
"                                          .........                                                 ",
"                                         ...........                                                ",
"                                         ............                                               ",
"                                        .............                                               ",
"                                       ...............                                              ",
"                                       ................                                             ",
"                                       .................                                            ",
"                                      ..................                                            ",
"                                     ....................                                           ",
"                                    ......................                                          ",
"                                   .......................                                          ",
"                                ...........................                                         ",
"                             ............     .................                                     ",
"                          ...............      ....................                                 ",
"                       ..................  ..   ....................                                ",
"                   ......................  ...  ..........................                          ",
"               ..........................  ..   .............................                       ",
"             ............................      .................................                    ",
"               ..........................     ..................................                    ",
"                 ........................      .............................                        ",
"                   ......................  ..   .........................                           ",
"                      ...................  ...  ......................                              ",
"                        .................  ..   ..................                                  ",
"                           ..............      .................                                    ",
"                             ............     .................                                     ",
"                              .................................                                     ",
"                              ..................................                                    ",
"                             ....................................                                   ",
"                            .....................................                                   ",
"                            ......................................                                  ",
"                           ........................................                                 ",
"                          .........................................                                 ",
"                          .................     ....................                                ",
"                         ................          ..................                               ",
"                        ...............              ................                               ",
"                        ............                   ...............                              ",
"                       ...........                        .............                             ",
"                       .........                            ...........                             ",
"                      ........                                 .........                            ",
"                     ......                                      ........                           ",
"                     ....                                          ......                           ",
"                    ...                                               ....                          ",
"                   ..                                                   ..                          ",
"                                                                                                    ",
"                                                                                                    ",
"                                                                                                    ",
"                                                                                                    ",
"                                                                                                    ",
"                                                                                                    ",
"                                                                                                    ",
"                                                                                                    ",
"                                                                                                    ",
"                                                                                                    ",
"                                                                                                    ",
"                                                                                                    ",
"                                                                                                    ",
"                                                                                                    ",
"                                                                                                    ",
"                                                                                                    ",
"                                                                                                    ",
"                                                                                                    ",
"                                                                                                    ",
"                                                                                                    ",
"                                                                                                    ",
"                                                                                                    ",
"                                                                                                    ",
"                                                                                                    ",
"                                                                                                    ",
"                                                                                                    ",
"                                                                                                    ",
"                                                                                                    ",
"                                                                                                    ",
"                                                                                                    ",
"                                                                                                    ",
"                                                                                                    ",
"                                                                                                    ",
"                                                                                                    ",
"                                                                                                    "
};
