/* XPM */
static char *c970b2a80577451c98faff18940ff34341IoPCKsv1AkMrSY[] = {
/* columns rows colors chars-per-pixel */
"100 100 2 1 ",
"  c black",
". c white",
/* pixels */
"....................................................................................................",
"....................................................................................................",
"....................................................................................................",
"....................................................................................................",
"....................................................................................................",
"....................................................................................................",
"....................................................................................................",
"....................................................................................................",
"....................................................................................................",
"....................................................................................................",
"....................................................................................................",
"....................................................................................................",
"....................................................................................................",
"....................................................................................................",
"..............                                                                       ...............",
"..............                                                                       ...............",
"..............                                                                       ...............",
"..............                                                                       ...............",
"..............                                                                       ...............",
"..............                                                                       ...............",
"..............       .........................................................       ...............",
"..............       .........................................................       ...............",
"..............       .........................................................       ...............",
"..............       .........................................................       ...............",
"..............       .........................................................       ...............",
"..............       .........................................................       ...............",
"..............       ......                                             ......       ...............",
"..............       ......                                             ......       ...............",
"..............       ......                                             ......       ...............",
"..............       ......                                             ......       ...............",
"..............       ......                                             ......       ...............",
"..............       ......     ...................................     ......       ...............",
"..............       ......     ...................................     ......       ...............",
"..............       ......     ...................................     ......       ...............",
"..............       ......     ...................................     ......       ...............",
"..............       ......     ....                           ....     ......       ...............",
"..............       ......     ....                           ....     ......       ...............",
"..............       ......     ....                           ....     ......       ...............",
"..............       ......     ....                           ....     ......       ...............",
"..............       ......     ....    ...................    ....     ......       ...............",
"..............       ......     ....    ...................    ....     ......       ...............",
"..............       ......     ....    ..               ..    ....     ......       ...............",
"..............       ......     ....    ..               ..    ....     ......       ...............",
"..............       ......     ....    ..               ..    ....     ......       ...............",
"..............                                                                       ...............",
"..............                  ...... ..         ..  ..   ............              ...............",
"..............                  ......  ..       ..        ............              ...............",
"..............                  ..       ..     ..    ..        ..                   ...............",
"..............                  ..        ..   ..     ..        ..                   ...............",
"..............                  ......     .. ..      ..        ..                   ...............",
"..............                  ......      ...       ..        ..                   ...............",
"..............                  ..         .. ..      ..        ..                   ...............",
"..............                  ..        ..   ..     ..        ..                   ...............",
"..............                  ......   ..     ..    ..        ..                   ...............",
"..............                  ......  ..       ..   ..        ..                   ...............",
"..............                                                                       ...............",
"..............       ......     ....    ..               ..    ....     ......       ...............",
"..............       ......     ....    ..               ..    ....     ......       ...............",
"..............       ......     ....    ..               ..    ....     ......       ...............",
"..............       ......     ....    ...................    ....     ......       ...............",
"..............       ......     ....    ...................    ....     ......       ...............",
"..............       ......     ....                           ....     ......       ...............",
"..............       ......     ....                           ....     ......       ...............",
"..............       ......     ....                           ....     ......       ...............",
"..............       ......     ....                           ....     ......       ...............",
"..............       ......     ...................................     ......       ...............",
"..............       ......     ...................................     ......       ...............",
"..............       ......     ...................................     ......       ...............",
"..............       ......     ...................................     ......       ...............",
"..............       ......                                             ......       ...............",
"..............       ......                                             ......       ...............",
"..............       ......                                             ......       ...............",
"..............       ......                                             ......       ...............",
"..............       ......                                             ......       ...............",
"..............       .........................................................       ...............",
"..............       .........................................................       ...............",
"..............       .........................................................       ...............",
"..............       .........................................................       ...............",
"..............       .........................................................       ...............",
"..............       .........................................................       ...............",
"..............                                                                       ...............",
"..............                                                                       ...............",
"..............                                                                       ...............",
"..............                                                                       ...............",
"..............                                                                       ...............",
"..............                                                                       ...............",
"....................................................................................................",
"....................................................................................................",
"....................................................................................................",
"....................................................................................................",
"....................................................................................................",
"....................................................................................................",
"....................................................................................................",
"....................................................................................................",
"....................................................................................................",
"....................................................................................................",
"....................................................................................................",
"....................................................................................................",
"....................................................................................................",
"...................................................................................................."
};
