/* XPM */
static char *b66e15b9037040f2af0b9053c293cf2dWYV4EzepAEyfe9xf[] = {
/* columns rows colors chars-per-pixel */
"100 100 2 1 ",
"  c black",
". c white",
/* pixels */
"....................................................................................................",
"....................................................................................................",
"....................................................................................................",
"....................................................................................................",
"....................................................................................................",
"....................................................................................................",
"....................................................................................................",
"....................................................................................................",
"....................................................................................................",
"....................................................................................................",
"....................................................................................................",
"....................................................................................................",
"....................................................................................................",
"....................................................................................................",
"....................................................................................................",
"....................................................................................................",
"....................................................................................................",
"....................................................................................................",
"....................................................................................................",
"....................................................................................................",
"....................................................................................................",
"....................................................................................................",
"....................................................................................................",
"....................................................................................................",
"........................                                                    ........................",
"........................                                                    ........................",
"........................                                                    ........................",
"........................                                                    ........................",
"........................                                                    ........................",
"........................                                                    ........................",
"........................                                                    ........................",
"........................                                                    ........................",
"........................                                                    ........................",
"........................                                                    ........................",
"........................                                                    ........................",
"........................                                                    ........................",
"........................                                                    ........................",
"........................                                                    ........................",
"........................                                                    ........................",
"........................                                                    ........................",
"........................                                                    ........................",
"........................                                                    ........................",
"........................                                                    ........................",
"........................                                                    ........................",
"........................                                                    ........................",
"........................                                                    ........................",
"........................    ..      ..    ....    ..        ..              ........................",
"........................    ..      ..    ....    ..        ..              ........................",
"........................    ..      ..  ..    ..  ..        ..              ........................",
"........................    ..      ..  ..    ..  ..        ..              ........................",
"........................    ..  ..  ..  ........  ..        ..              ........................",
"........................    ..  ..  ..  ........  ..        ..              ........................",
"........................    ....  ....  ..    ..  ..        ..              ........................",
"........................    ....  ....  ..    ..  ..        ..              ........................",
"........................    ..      ..  ..    ..  ........  ........        ........................",
"........................    ..      ..  ..    ..  ........  ........        ........................",
"........................                                                    ........................",
"........................                                                    ........................",
"........................                                                    ........................",
"........................                                                    ........................",
"........................                                                    ........................",
"........................                                                    ........................",
"........................                                                    ........................",
"........................                                                    ........................",
"........................                                                    ........................",
"........................                                                    ........................",
"........................                                                    ........................",
"........................                                                    ........................",
"........................                                                    ........................",
"........................                                                    ........................",
"........................                                                    ........................",
"........................                                                    ........................",
"........................                                                    ........................",
"........................                                                    ........................",
"........................                                                    ........................",
"........................                                                    ........................",
"....................................................................................................",
"....................................................................................................",
"....................................................................................................",
"....................................................................................................",
"....................................................................................................",
"....................................................................................................",
"....................................................................................................",
"....................................................................................................",
"....................................................................................................",
"....................................................................................................",
"....................................................................................................",
"....................................................................................................",
"....................................................................................................",
"....................................................................................................",
"....................................................................................................",
"....................................................................................................",
"....................................................................................................",
"....................................................................................................",
"....................................................................................................",
"....................................................................................................",
"....................................................................................................",
"....................................................................................................",
"....................................................................................................",
"...................................................................................................."
};
